# xmcd
#
# Track frame offsets:
#	150
#	10398
#	25296
#	39594
#	53817
#	73965
#	89163
#	104811
#	117684
#	131757
#	147780
#	162078
#
# Disc length: 2354 seconds
#
# Revision: 1
# Processed by: cddbd v1.5.2PL0 Copyright (c) Steve Scherf et al.
# Submitted via: audiograbber 1.83.01
#
DISCID=b809300c
DTITLE=Manuel Cowboy Donley and his Trio Romantico - The Brown Recluse Sessions
DYEAR=2011
DGENRE=Folk
TTITLE0=El Rey
TTITLE1=Contigo
TTITLE2=No Me Estorbes
TTITLE3=Me Voy Pa'l Pueblo
TTITLE4=Amor Eterno
TTITLE5=Maria Isabel
TTITLE6=Perfida
TTITLE7=Poquita Fe
TTITLE8=Sin Ti
TTITLE9=Sin Un Amor
TTITLE10=Sufro Tu Ausencia
TTITLE11=El Reloj
EXTD=
EXTT0=
EXTT1=
EXTT2=
EXTT3=
EXTT4=
EXTT5=
EXTT6=
EXTT7=
EXTT8=
EXTT9=
EXTT10=
EXTT11=
PLAYORDER=
